<svg version="1" xmlns="http://www.w3.org/2000/svg" width="21.333" height="21.333" viewBox="0 0 16.000000 16.000000"><path d="M1.029 8.257v4.559l.612-.003.61-.002.005-1.794c.005-.988.01-1.809.012-1.827.007-.03.153-.034.978-.037a23.13 23.13 0 0 0 1.097-.02c.069-.01.167-.02.218-.028.05-.006.12-.018.16-.022.036-.005.176-.037.308-.069 1.08-.277 1.712-.994 1.852-2.103.039-.318.034-.825-.014-1.068-.07-.375-.121-.535-.242-.782-.254-.51-.652-.866-1.22-1.092a3.4 3.4 0 0 0-.662-.188 3.07 3.07 0 0 1-.297-.05 62.44 62.44 0 0 0-1.742-.023L1.03 3.697v4.56zm3.143-3.52c.039.009.105.02.149.027.48.078.912.389 1.108.8.21.437.24 1.04.08 1.525a1.455 1.455 0 0 1-.948.944c-.284.094-.45.108-1.44.108l-.846.002-.007-1.714-.005-1.713.92.003c.507.002.952.011.989.018zM8.572 8.257v4.559l.618.002.617.002.005-1.925.006-1.924h.778c.839.002.946.009 1.188.068.478.119.794.389 1.146.98.061.104.404.771.763 1.489l.652 1.303.658.002c.361.003.656 0 .656-.007 0-.004-.313-.633-.695-1.396-.885-1.763-1.054-2.046-1.456-2.449-.183-.185-.478-.39-.558-.39-.068 0-.032-.04.064-.067.156-.048.405-.169.553-.272.586-.407.883-1.05.887-1.913 0-.147-.027-.563-.04-.583a2.614 2.614 0 0 0-.373-.983 2.397 2.397 0 0 0-.54-.535 2.76 2.76 0 0 0-.7-.322l-.045-.016a3.332 3.332 0 0 0-.503-.112c-.274-.048-.359-.05-1.982-.06l-1.699-.011v4.56zm3.2-3.518c.033.007.117.025.19.037.074.013.193.048.264.075.614.231.92.723.923 1.48.005.776-.331 1.286-.985 1.508-.275.091-.51.11-1.459.112l-.898.005v-3.24l.955.005c.524.002.979.011 1.01.018z"/></svg>